<mxfile host="app.diagrams.net" modified="2023-09-18T02:15:09.074Z" agent="Mozilla/5.0 (Windows NT 10.0; Win64; x64) AppleWebKit/537.36 (KHTML, like Gecko) Chrome/116.0.0.0 Safari/537.36" etag="BN_6NJOXBAFr8nI6YHnN" version="21.7.5" type="device">
  <diagram name="페이지-1" id="m2peRrRt7KcPgedfKMMH">
    <mxGraphModel dx="1737" dy="470" grid="1" gridSize="10" guides="1" tooltips="1" connect="1" arrows="1" fold="1" page="1" pageScale="1" pageWidth="827" pageHeight="1169" math="0" shadow="0">
      <root>
        <mxCell id="0" />
        <mxCell id="1" parent="0" />
        <mxCell id="6oBFWntBD9Y9UDKRCqfa-56" value="" style="rounded=0;whiteSpace=wrap;html=1;fontSize=16;dashed=1;dashPattern=8 8;strokeWidth=1;fillColor=none;" parent="1" vertex="1">
          <mxGeometry x="735" y="240" width="255" height="510" as="geometry" />
        </mxCell>
        <mxCell id="6oBFWntBD9Y9UDKRCqfa-40" value="" style="rounded=0;whiteSpace=wrap;html=1;fontSize=16;dashed=1;dashPattern=8 8;strokeWidth=1;fillColor=none;" parent="1" vertex="1">
          <mxGeometry x="-160" y="240" width="430" height="890" as="geometry" />
        </mxCell>
        <mxCell id="6oBFWntBD9Y9UDKRCqfa-54" value="" style="rounded=0;whiteSpace=wrap;html=1;fontSize=16;dashed=1;dashPattern=8 8;strokeWidth=1;fillColor=none;" parent="1" vertex="1">
          <mxGeometry x="290" y="240" width="430" height="890" as="geometry" />
        </mxCell>
        <mxCell id="W8IOp_CuBcv07sHdW2r7-23" value="" style="endArrow=classic;html=1;rounded=0;exitX=0.5;exitY=1;exitDx=0;exitDy=0;" parent="1" source="W8IOp_CuBcv07sHdW2r7-21" edge="1">
          <mxGeometry width="50" height="50" relative="1" as="geometry">
            <mxPoint x="172.25" y="1001" as="sourcePoint" />
            <mxPoint x="170.25" y="991" as="targetPoint" />
          </mxGeometry>
        </mxCell>
        <mxCell id="W8IOp_CuBcv07sHdW2r7-28" value="" style="endArrow=classic;html=1;rounded=0;" parent="1" edge="1">
          <mxGeometry width="50" height="50" relative="1" as="geometry">
            <mxPoint x="81.63" y="890.71" as="sourcePoint" />
            <mxPoint x="-10" y="891" as="targetPoint" />
          </mxGeometry>
        </mxCell>
        <mxCell id="W8IOp_CuBcv07sHdW2r7-29" value="&lt;font color=&quot;#ff0000&quot;&gt;No&lt;/font&gt;" style="edgeLabel;html=1;align=center;verticalAlign=middle;resizable=0;points=[];" parent="W8IOp_CuBcv07sHdW2r7-28" vertex="1" connectable="0">
          <mxGeometry x="-0.0877" y="1" relative="1" as="geometry">
            <mxPoint x="130" y="64" as="offset" />
          </mxGeometry>
        </mxCell>
        <mxCell id="W8IOp_CuBcv07sHdW2r7-1" value="" style="sketch=0;aspect=fixed;pointerEvents=1;shadow=0;dashed=0;html=1;strokeColor=none;labelPosition=center;verticalLabelPosition=bottom;verticalAlign=top;align=center;fillColor=#00188D;shape=mxgraph.azure.computer" parent="1" vertex="1">
          <mxGeometry x="484.13" y="60" width="66.67" height="60" as="geometry" />
        </mxCell>
        <mxCell id="W8IOp_CuBcv07sHdW2r7-3" value="" style="endArrow=classic;html=1;rounded=0;" parent="1" edge="1">
          <mxGeometry width="50" height="50" relative="1" as="geometry">
            <mxPoint x="518.13" y="120" as="sourcePoint" />
            <mxPoint x="518.13" y="200" as="targetPoint" />
            <Array as="points">
              <mxPoint x="518.13" y="170" />
            </Array>
          </mxGeometry>
        </mxCell>
        <mxCell id="W8IOp_CuBcv07sHdW2r7-4" value="관리자 로그인" style="edgeLabel;html=1;align=center;verticalAlign=middle;resizable=0;points=[];" parent="W8IOp_CuBcv07sHdW2r7-3" vertex="1" connectable="0">
          <mxGeometry x="-0.3212" y="-1" relative="1" as="geometry">
            <mxPoint x="1" y="7" as="offset" />
          </mxGeometry>
        </mxCell>
        <mxCell id="W8IOp_CuBcv07sHdW2r7-5" value="" style="verticalLabelPosition=bottom;sketch=0;html=1;fillColor=#282828;strokeColor=none;verticalAlign=top;pointerEvents=1;align=center;shape=mxgraph.cisco_safe.people_places_things_icons.icon9;" parent="1" vertex="1">
          <mxGeometry x="150" y="260" width="50" height="45" as="geometry" />
        </mxCell>
        <mxCell id="W8IOp_CuBcv07sHdW2r7-6" value="" style="endArrow=none;html=1;rounded=0;" parent="1" edge="1">
          <mxGeometry width="50" height="50" relative="1" as="geometry">
            <mxPoint x="170" y="210" as="sourcePoint" />
            <mxPoint x="860" y="210" as="targetPoint" />
          </mxGeometry>
        </mxCell>
        <mxCell id="W8IOp_CuBcv07sHdW2r7-7" value="" style="endArrow=none;html=1;rounded=0;exitX=0.406;exitY=-0.007;exitDx=0;exitDy=0;exitPerimeter=0;" parent="1" source="W8IOp_CuBcv07sHdW2r7-5" edge="1">
          <mxGeometry width="50" height="50" relative="1" as="geometry">
            <mxPoint x="60" y="260" as="sourcePoint" />
            <mxPoint x="170" y="210" as="targetPoint" />
          </mxGeometry>
        </mxCell>
        <mxCell id="W8IOp_CuBcv07sHdW2r7-8" value="&lt;font face=&quot;Comic Sans MS&quot; style=&quot;font-size: 14px;&quot;&gt;User Interface&lt;/font&gt;" style="text;strokeColor=none;fillColor=none;html=1;fontSize=24;fontStyle=1;verticalAlign=middle;align=center;" parent="1" vertex="1">
          <mxGeometry x="468.13" y="20" width="100" height="40" as="geometry" />
        </mxCell>
        <mxCell id="W8IOp_CuBcv07sHdW2r7-9" value="&lt;font style=&quot;font-size: 12px;&quot;&gt;1. 작업자 출석 기능&lt;/font&gt;" style="text;strokeColor=none;fillColor=none;html=1;fontSize=24;fontStyle=1;verticalAlign=middle;align=center;" parent="1" vertex="1">
          <mxGeometry x="124" y="293" width="100" height="40" as="geometry" />
        </mxCell>
        <mxCell id="W8IOp_CuBcv07sHdW2r7-10" value="" style="endArrow=classic;html=1;rounded=0;" parent="1" edge="1">
          <mxGeometry width="50" height="50" relative="1" as="geometry">
            <mxPoint x="170" y="334" as="sourcePoint" />
            <mxPoint x="170" y="450" as="targetPoint" />
          </mxGeometry>
        </mxCell>
        <mxCell id="W8IOp_CuBcv07sHdW2r7-11" value="&lt;font style=&quot;font-size: 9px;&quot;&gt;입구 cam&lt;br&gt;연결&lt;/font&gt;" style="edgeLabel;html=1;align=center;verticalAlign=middle;resizable=0;points=[];" parent="W8IOp_CuBcv07sHdW2r7-10" vertex="1" connectable="0">
          <mxGeometry x="0.0418" y="2" relative="1" as="geometry">
            <mxPoint x="-4" y="-6" as="offset" />
          </mxGeometry>
        </mxCell>
        <mxCell id="W8IOp_CuBcv07sHdW2r7-15" value="OCR 모델&lt;br&gt;(paddleOCR)" style="shape=cube;whiteSpace=wrap;html=1;boundedLbl=1;backgroundOutline=1;darkOpacity=0.05;darkOpacity2=0.1;size=5;fillColor=#cce5ff;strokeColor=#36393d;" parent="1" vertex="1">
          <mxGeometry x="124" y="460" width="95" height="70" as="geometry" />
        </mxCell>
        <mxCell id="W8IOp_CuBcv07sHdW2r7-16" value="" style="endArrow=classic;html=1;rounded=0;" parent="1" source="W8IOp_CuBcv07sHdW2r7-15" edge="1">
          <mxGeometry width="50" height="50" relative="1" as="geometry">
            <mxPoint x="120" y="500" as="sourcePoint" />
            <mxPoint x="-10" y="495" as="targetPoint" />
          </mxGeometry>
        </mxCell>
        <mxCell id="W8IOp_CuBcv07sHdW2r7-17" value="&lt;font style=&quot;font-size: 9px;&quot;&gt;&lt;b&gt;&lt;font color=&quot;#0000ff&quot;&gt;작업자 ID&lt;br&gt;확인, 전달&lt;/font&gt;&lt;br&gt;&lt;/b&gt;&lt;/font&gt;" style="edgeLabel;html=1;align=center;verticalAlign=middle;resizable=0;points=[];" parent="W8IOp_CuBcv07sHdW2r7-16" vertex="1" connectable="0">
          <mxGeometry x="0.0198" y="1" relative="1" as="geometry">
            <mxPoint x="-1" y="-1" as="offset" />
          </mxGeometry>
        </mxCell>
        <mxCell id="W8IOp_CuBcv07sHdW2r7-18" value="Object Detection(yolov8n) +&lt;br&gt;Pose Estimation(Mediapipe)" style="shape=cube;whiteSpace=wrap;html=1;boundedLbl=1;backgroundOutline=1;darkOpacity=0.05;darkOpacity2=0.1;size=5;fillColor=#cce5ff;strokeColor=#36393d;" parent="1" vertex="1">
          <mxGeometry x="90" y="620" width="160" height="70" as="geometry" />
        </mxCell>
        <mxCell id="W8IOp_CuBcv07sHdW2r7-19" value="" style="endArrow=classic;html=1;rounded=0;exitX=0;exitY=0;exitDx=50;exitDy=70;exitPerimeter=0;" parent="1" edge="1">
          <mxGeometry width="50" height="50" relative="1" as="geometry">
            <mxPoint x="172" y="690" as="sourcePoint" />
            <mxPoint x="172" y="840" as="targetPoint" />
          </mxGeometry>
        </mxCell>
        <mxCell id="W8IOp_CuBcv07sHdW2r7-20" value="&lt;font size=&quot;1&quot;&gt;보호구 detection &amp;amp;&lt;br&gt;openpose 좌표값 생성&lt;br&gt;&lt;/font&gt;" style="edgeLabel;html=1;align=center;verticalAlign=middle;resizable=0;points=[];" parent="W8IOp_CuBcv07sHdW2r7-19" vertex="1" connectable="0">
          <mxGeometry x="-0.1733" relative="1" as="geometry">
            <mxPoint as="offset" />
          </mxGeometry>
        </mxCell>
        <mxCell id="W8IOp_CuBcv07sHdW2r7-21" value="&lt;font style=&quot;font-size: 10px;&quot;&gt;(조건)&lt;br&gt;보호구가 정확하게&lt;br&gt;착용되었나?&lt;br&gt;&lt;/font&gt;" style="rhombus;whiteSpace=wrap;html=1;fillColor=#cdeb8b;strokeColor=#36393d;" parent="1" vertex="1">
          <mxGeometry x="81.63" y="851" width="176.25" height="80" as="geometry" />
        </mxCell>
        <mxCell id="W8IOp_CuBcv07sHdW2r7-30" value="&lt;font style=&quot;font-size: 9px;&quot;&gt;&amp;nbsp;출석(attendance) table 입력&lt;/font&gt;" style="shape=datastore;whiteSpace=wrap;html=1;fillColor=#eeeeee;strokeColor=#36393d;" parent="1" vertex="1">
          <mxGeometry x="-110" y="440" width="91.24" height="90" as="geometry" />
        </mxCell>
        <mxCell id="W8IOp_CuBcv07sHdW2r7-33" value="web" style="shape=folder;fontStyle=1;tabWidth=110;tabHeight=30;tabPosition=left;html=1;boundedLbl=1;labelInHeader=1;container=1;collapsible=0;whiteSpace=wrap;" parent="1" vertex="1">
          <mxGeometry x="94.76000000000002" y="999" width="150" height="100" as="geometry" />
        </mxCell>
        <mxCell id="W8IOp_CuBcv07sHdW2r7-34" value="보호 장비를&lt;br&gt;정확히 착용하십시오." style="html=1;strokeColor=none;resizeWidth=1;resizeHeight=1;fillColor=none;part=1;connectable=0;allowArrows=0;deletable=0;whiteSpace=wrap;align=center;" parent="W8IOp_CuBcv07sHdW2r7-33" vertex="1">
          <mxGeometry width="150" height="70" relative="1" as="geometry">
            <mxPoint y="30" as="offset" />
          </mxGeometry>
        </mxCell>
        <mxCell id="W8IOp_CuBcv07sHdW2r7-31" value="" style="shadow=0;dashed=0;html=1;strokeColor=none;fillColor=#4495D1;labelPosition=center;verticalLabelPosition=bottom;verticalAlign=top;align=center;outlineConnect=0;shape=mxgraph.veeam.2d.alert;" parent="W8IOp_CuBcv07sHdW2r7-33" vertex="1">
          <mxGeometry x="6.399999999999977" y="6.000000000000046" width="20" height="16.6" as="geometry" />
        </mxCell>
        <mxCell id="W8IOp_CuBcv07sHdW2r7-37" value="&lt;font style=&quot;font-size: 9px;&quot;&gt;&amp;nbsp;보호구 착용 여부(safety_check)&lt;br&gt;table 입력&lt;/font&gt;" style="shape=datastore;whiteSpace=wrap;html=1;fillColor=#eeeeee;strokeColor=#36393d;" parent="1" vertex="1">
          <mxGeometry x="-120" y="841" width="102.37" height="100" as="geometry" />
        </mxCell>
        <mxCell id="W8IOp_CuBcv07sHdW2r7-39" value="" style="endArrow=none;html=1;rounded=0;exitX=0.406;exitY=-0.007;exitDx=0;exitDy=0;exitPerimeter=0;" parent="1" edge="1">
          <mxGeometry width="50" height="50" relative="1" as="geometry">
            <mxPoint x="470.18" y="260" as="sourcePoint" />
            <mxPoint x="470.18" y="210" as="targetPoint" />
          </mxGeometry>
        </mxCell>
        <mxCell id="W8IOp_CuBcv07sHdW2r7-40" value="Danger" style="html=1;shadow=0;dashed=0;shape=mxgraph.bootstrap.rrect;rSize=5;strokeColor=none;strokeWidth=1;fillColor=#DB2843;fontColor=#FFFFFF;whiteSpace=wrap;align=center;verticalAlign=middle;spacingLeft=0;fontStyle=0;fontSize=16;spacing=5;" parent="1" vertex="1">
          <mxGeometry x="431.18000000000006" y="260" width="80" height="40" as="geometry" />
        </mxCell>
        <mxCell id="W8IOp_CuBcv07sHdW2r7-41" value="&lt;font style=&quot;font-size: 12px;&quot;&gt;2. 위험 지역 적정 인원 판별 기능&lt;/font&gt;" style="text;strokeColor=none;fillColor=none;html=1;fontSize=24;fontStyle=1;verticalAlign=middle;align=center;" parent="1" vertex="1">
          <mxGeometry x="420.52000000000004" y="293" width="100" height="40" as="geometry" />
        </mxCell>
        <mxCell id="W8IOp_CuBcv07sHdW2r7-42" value="" style="endArrow=classic;html=1;rounded=0;" parent="1" edge="1">
          <mxGeometry width="50" height="50" relative="1" as="geometry">
            <mxPoint x="470.18" y="333" as="sourcePoint" />
            <mxPoint x="470" y="450" as="targetPoint" />
          </mxGeometry>
        </mxCell>
        <mxCell id="W8IOp_CuBcv07sHdW2r7-43" value="&lt;font style=&quot;font-size: 9px;&quot;&gt;입구 cam&lt;br&gt;연결&lt;/font&gt;" style="edgeLabel;html=1;align=center;verticalAlign=middle;resizable=0;points=[];" parent="W8IOp_CuBcv07sHdW2r7-42" vertex="1" connectable="0">
          <mxGeometry x="0.0418" y="2" relative="1" as="geometry">
            <mxPoint x="-4" y="-6" as="offset" />
          </mxGeometry>
        </mxCell>
        <mxCell id="W8IOp_CuBcv07sHdW2r7-44" value="OCR 모델&lt;br&gt;(paddleOCR)" style="shape=cube;whiteSpace=wrap;html=1;boundedLbl=1;backgroundOutline=1;darkOpacity=0.05;darkOpacity2=0.1;size=5;fillColor=#cce5ff;strokeColor=#36393d;" parent="1" vertex="1">
          <mxGeometry x="419.75" y="460" width="95" height="70" as="geometry" />
        </mxCell>
        <mxCell id="W8IOp_CuBcv07sHdW2r7-45" value="" style="endArrow=classic;html=1;rounded=0;exitX=0;exitY=0;exitDx=50;exitDy=70;exitPerimeter=0;" parent="1" edge="1">
          <mxGeometry width="50" height="50" relative="1" as="geometry">
            <mxPoint x="467.25" y="530" as="sourcePoint" />
            <mxPoint x="467.25" y="610" as="targetPoint" />
          </mxGeometry>
        </mxCell>
        <mxCell id="W8IOp_CuBcv07sHdW2r7-47" value="&lt;font size=&quot;1&quot;&gt;구역 출입(access)&lt;br&gt;table 입력&lt;br&gt;&lt;/font&gt;" style="shape=datastore;whiteSpace=wrap;html=1;fillColor=#eeeeee;strokeColor=#36393d;" parent="1" vertex="1">
          <mxGeometry x="421.5" y="615" width="93.25" height="95" as="geometry" />
        </mxCell>
        <mxCell id="W8IOp_CuBcv07sHdW2r7-50" value="&lt;font style=&quot;font-size: 10px;&quot;&gt;(조건)&lt;br&gt;위험지역 내 인원수가&lt;br&gt;2명 이상인가?&lt;br&gt;&lt;/font&gt;" style="rhombus;whiteSpace=wrap;html=1;fillColor=#cdeb8b;strokeColor=#36393d;" parent="1" vertex="1">
          <mxGeometry x="380" y="884" width="176.25" height="80" as="geometry" />
        </mxCell>
        <mxCell id="W8IOp_CuBcv07sHdW2r7-51" value="" style="endArrow=classic;html=1;rounded=0;" parent="1" edge="1">
          <mxGeometry width="50" height="50" relative="1" as="geometry">
            <mxPoint x="468" y="800" as="sourcePoint" />
            <mxPoint x="467.63" y="878.5" as="targetPoint" />
          </mxGeometry>
        </mxCell>
        <mxCell id="W8IOp_CuBcv07sHdW2r7-52" value="" style="endArrow=classic;html=1;rounded=0;exitX=0.5;exitY=1;exitDx=0;exitDy=0;" parent="1" edge="1">
          <mxGeometry width="50" height="50" relative="1" as="geometry">
            <mxPoint x="425.38" y="946" as="sourcePoint" />
            <mxPoint x="408" y="990" as="targetPoint" />
          </mxGeometry>
        </mxCell>
        <mxCell id="W8IOp_CuBcv07sHdW2r7-57" value="" style="endArrow=classic;html=1;rounded=0;exitX=1;exitY=1;exitDx=0;exitDy=0;" parent="1" source="W8IOp_CuBcv07sHdW2r7-50" edge="1">
          <mxGeometry width="50" height="50" relative="1" as="geometry">
            <mxPoint x="563.25" y="975" as="sourcePoint" />
            <mxPoint x="540" y="990" as="targetPoint" />
          </mxGeometry>
        </mxCell>
        <mxCell id="W8IOp_CuBcv07sHdW2r7-58" value="&lt;font color=&quot;#ff0000&quot;&gt;No&lt;/font&gt;" style="edgeLabel;html=1;align=center;verticalAlign=middle;resizable=0;points=[];" parent="W8IOp_CuBcv07sHdW2r7-57" vertex="1" connectable="0">
          <mxGeometry x="-0.0877" y="1" relative="1" as="geometry">
            <mxPoint x="-109" y="1" as="offset" />
          </mxGeometry>
        </mxCell>
        <mxCell id="W8IOp_CuBcv07sHdW2r7-59" value="Slack" style="shape=folder;fontStyle=1;tabWidth=110;tabHeight=30;tabPosition=left;html=1;boundedLbl=1;labelInHeader=1;container=1;collapsible=0;whiteSpace=wrap;" parent="1" vertex="1">
          <mxGeometry x="338.34000000000003" y="999" width="150" height="100" as="geometry" />
        </mxCell>
        <mxCell id="W8IOp_CuBcv07sHdW2r7-62" value="" style="shape=image;html=1;verticalAlign=top;verticalLabelPosition=bottom;labelBackgroundColor=#ffffff;imageAspect=0;aspect=fixed;image=https://cdn2.iconfinder.com/data/icons/social-media-2285/512/1_Slack_colored_svg-128.png" parent="W8IOp_CuBcv07sHdW2r7-59" vertex="1">
          <mxGeometry x="10" y="5" width="20" height="20" as="geometry" />
        </mxCell>
        <mxCell id="W8IOp_CuBcv07sHdW2r7-60" value="관리자에게&lt;br&gt;경고 메시지 전달" style="html=1;strokeColor=none;resizeWidth=1;resizeHeight=1;fillColor=none;part=1;connectable=0;allowArrows=0;deletable=0;whiteSpace=wrap;align=center;" parent="W8IOp_CuBcv07sHdW2r7-59" vertex="1">
          <mxGeometry width="150" height="70" relative="1" as="geometry">
            <mxPoint y="30" as="offset" />
          </mxGeometry>
        </mxCell>
        <mxCell id="W8IOp_CuBcv07sHdW2r7-67" value="" style="endArrow=none;html=1;rounded=0;exitX=0.406;exitY=-0.007;exitDx=0;exitDy=0;exitPerimeter=0;" parent="1" edge="1">
          <mxGeometry width="50" height="50" relative="1" as="geometry">
            <mxPoint x="860" y="260" as="sourcePoint" />
            <mxPoint x="860" y="210" as="targetPoint" />
          </mxGeometry>
        </mxCell>
        <mxCell id="W8IOp_CuBcv07sHdW2r7-68" value="" style="verticalLabelPosition=bottom;sketch=0;aspect=fixed;html=1;verticalAlign=top;strokeColor=none;align=center;outlineConnect=0;shape=mxgraph.citrix.reporting;" parent="1" vertex="1">
          <mxGeometry x="830" y="250.68" width="55.54" height="62.32" as="geometry" />
        </mxCell>
        <mxCell id="W8IOp_CuBcv07sHdW2r7-69" value="&lt;span style=&quot;font-size: 12px;&quot;&gt;3. 통계 리포트 출력 기능&lt;/span&gt;" style="text;strokeColor=none;fillColor=none;html=1;fontSize=24;fontStyle=1;verticalAlign=middle;align=center;" parent="1" vertex="1">
          <mxGeometry x="810" y="304" width="100" height="40" as="geometry" />
        </mxCell>
        <mxCell id="W8IOp_CuBcv07sHdW2r7-73" value="" style="group" parent="1" vertex="1" connectable="0">
          <mxGeometry x="787" y="430" width="87" height="90" as="geometry" />
        </mxCell>
        <mxCell id="W8IOp_CuBcv07sHdW2r7-72" value="" style="shape=datastore;whiteSpace=wrap;html=1;fillColor=#eeeeee;strokeColor=#36393d;" parent="W8IOp_CuBcv07sHdW2r7-73" vertex="1">
          <mxGeometry x="71.5" width="48.5" height="60" as="geometry" />
        </mxCell>
        <mxCell id="W8IOp_CuBcv07sHdW2r7-70" value="" style="shape=datastore;whiteSpace=wrap;html=1;fillColor=#eeeeee;strokeColor=#36393d;" parent="W8IOp_CuBcv07sHdW2r7-73" vertex="1">
          <mxGeometry x="23" y="10" width="48.5" height="60" as="geometry" />
        </mxCell>
        <mxCell id="W8IOp_CuBcv07sHdW2r7-71" value="" style="shape=datastore;whiteSpace=wrap;html=1;fillColor=#eeeeee;strokeColor=#36393d;" parent="W8IOp_CuBcv07sHdW2r7-73" vertex="1">
          <mxGeometry x="57.25" y="30" width="48.5" height="60" as="geometry" />
        </mxCell>
        <mxCell id="W8IOp_CuBcv07sHdW2r7-74" value="" style="endArrow=classic;html=1;rounded=0;" parent="1" edge="1">
          <mxGeometry width="50" height="50" relative="1" as="geometry">
            <mxPoint x="859.62" y="343" as="sourcePoint" />
            <mxPoint x="860" y="419" as="targetPoint" />
          </mxGeometry>
        </mxCell>
        <mxCell id="W8IOp_CuBcv07sHdW2r7-75" value="&lt;font size=&quot;1&quot;&gt;DBMS 접근&lt;/font&gt;" style="edgeLabel;html=1;align=center;verticalAlign=middle;resizable=0;points=[];" parent="W8IOp_CuBcv07sHdW2r7-74" vertex="1" connectable="0">
          <mxGeometry x="0.0418" y="2" relative="1" as="geometry">
            <mxPoint x="-4" y="-6" as="offset" />
          </mxGeometry>
        </mxCell>
        <mxCell id="W8IOp_CuBcv07sHdW2r7-76" value="" style="endArrow=classic;html=1;rounded=0;" parent="1" edge="1">
          <mxGeometry width="50" height="50" relative="1" as="geometry">
            <mxPoint x="860" y="520" as="sourcePoint" />
            <mxPoint x="860" y="606" as="targetPoint" />
          </mxGeometry>
        </mxCell>
        <mxCell id="W8IOp_CuBcv07sHdW2r7-77" value="&lt;font size=&quot;1&quot;&gt;시각화(plotly)&lt;/font&gt;" style="edgeLabel;html=1;align=center;verticalAlign=middle;resizable=0;points=[];" parent="W8IOp_CuBcv07sHdW2r7-76" vertex="1" connectable="0">
          <mxGeometry x="0.0418" y="2" relative="1" as="geometry">
            <mxPoint x="-4" y="-6" as="offset" />
          </mxGeometry>
        </mxCell>
        <mxCell id="W8IOp_CuBcv07sHdW2r7-78" value="" style="image;html=1;image=img/lib/clip_art/finance/Graph_128x128.png" parent="1" vertex="1">
          <mxGeometry x="827" y="615" width="80" height="80" as="geometry" />
        </mxCell>
        <mxCell id="6oBFWntBD9Y9UDKRCqfa-1" value="&lt;font size=&quot;1&quot; color=&quot;#0000ff&quot; style=&quot;&quot;&gt;&lt;b style=&quot;&quot;&gt;작업자 모습 모델에 전달&lt;/b&gt;&lt;/font&gt;" style="text;strokeColor=none;fillColor=none;html=1;align=center;verticalAlign=middle;whiteSpace=wrap;rounded=0;fontSize=16;" parent="1" vertex="1">
          <mxGeometry x="50" y="410" width="120" height="30" as="geometry" />
        </mxCell>
        <mxCell id="6oBFWntBD9Y9UDKRCqfa-2" value="&lt;p style=&quot;line-height: 70%;&quot;&gt;&lt;font size=&quot;1&quot;&gt;출석 아이디(PK)&lt;br&gt;작업자 아이디(FK)&lt;br&gt;출근 시간/날짜&lt;br&gt;퇴근 시간/날짜(null 허용)&lt;br&gt;&lt;/font&gt;&lt;/p&gt;" style="text;strokeColor=default;fillColor=none;html=1;align=center;verticalAlign=middle;whiteSpace=wrap;rounded=0;fontSize=16;strokeWidth=1;opacity=80;" parent="1" vertex="1">
          <mxGeometry x="-127.13" y="537" width="125.5" height="60" as="geometry" />
        </mxCell>
        <mxCell id="6oBFWntBD9Y9UDKRCqfa-3" value="&lt;font size=&quot;1&quot; color=&quot;#0000ff&quot;&gt;&lt;b&gt;보호구 bounding box,&amp;nbsp;&lt;br&gt;openpose 꼭지점 좌표값 전달&lt;br&gt;&lt;/b&gt;&lt;/font&gt;" style="text;strokeColor=none;fillColor=none;html=1;align=center;verticalAlign=middle;whiteSpace=wrap;rounded=0;fontSize=16;" parent="1" vertex="1">
          <mxGeometry y="796" width="170" height="30" as="geometry" />
        </mxCell>
        <mxCell id="6oBFWntBD9Y9UDKRCqfa-4" value="" style="endArrow=classic;html=1;rounded=0;" parent="1" edge="1">
          <mxGeometry width="50" height="50" relative="1" as="geometry">
            <mxPoint x="171.09" y="530" as="sourcePoint" />
            <mxPoint x="171.09" y="616" as="targetPoint" />
          </mxGeometry>
        </mxCell>
        <mxCell id="6oBFWntBD9Y9UDKRCqfa-33" value="&lt;font size=&quot;1&quot; color=&quot;#0000ff&quot; style=&quot;&quot;&gt;&lt;b style=&quot;&quot;&gt;작업자 모습 모델에 전달&lt;/b&gt;&lt;/font&gt;" style="text;strokeColor=none;fillColor=none;html=1;align=center;verticalAlign=middle;whiteSpace=wrap;rounded=0;fontSize=16;" parent="1" vertex="1">
          <mxGeometry x="50" y="570" width="120" height="30" as="geometry" />
        </mxCell>
        <mxCell id="6oBFWntBD9Y9UDKRCqfa-36" value="&lt;p style=&quot;line-height: 70%;&quot;&gt;&lt;font size=&quot;1&quot;&gt;식별 아이디(PK)&lt;br&gt;경고 코드(FK)&lt;br&gt;출석 아이디(FK)&lt;br&gt;작업자 아이디(FK)&lt;br&gt;&lt;/font&gt;&lt;/p&gt;" style="text;strokeColor=default;fillColor=none;html=1;align=center;verticalAlign=middle;whiteSpace=wrap;rounded=0;fontSize=16;strokeWidth=1;opacity=80;" parent="1" vertex="1">
          <mxGeometry x="-131.57" y="949" width="125.5" height="60" as="geometry" />
        </mxCell>
        <mxCell id="6oBFWntBD9Y9UDKRCqfa-38" value="" style="endArrow=classic;html=1;rounded=0;fontSize=12;startSize=8;endSize=8;" parent="1" edge="1">
          <mxGeometry width="50" height="50" relative="1" as="geometry">
            <mxPoint x="155" y="955" as="sourcePoint" />
            <mxPoint x="-10" y="910" as="targetPoint" />
            <Array as="points">
              <mxPoint x="60" y="955" />
              <mxPoint x="60" y="910" />
            </Array>
          </mxGeometry>
        </mxCell>
        <mxCell id="6oBFWntBD9Y9UDKRCqfa-39" value="&lt;font color=&quot;#0000ff&quot;&gt;Yes&lt;/font&gt;" style="edgeLabel;html=1;align=center;verticalAlign=middle;resizable=0;points=[];" parent="1" vertex="1" connectable="0">
          <mxGeometry x="179.72861285189538" y="965.8426188058784" as="geometry">
            <mxPoint x="-143" y="-75" as="offset" />
          </mxGeometry>
        </mxCell>
        <mxCell id="6oBFWntBD9Y9UDKRCqfa-41" value="&lt;font style=&quot;font-size: 9px;&quot;&gt;&lt;b&gt;&lt;font color=&quot;#0000ff&quot;&gt;작업자 ID&lt;br&gt;확인, 전달&lt;/font&gt;&lt;br&gt;&lt;/b&gt;&lt;/font&gt;" style="edgeLabel;html=1;align=center;verticalAlign=middle;resizable=0;points=[];" parent="1" vertex="1" connectable="0">
          <mxGeometry x="466.59" y="567" as="geometry" />
        </mxCell>
        <mxCell id="6oBFWntBD9Y9UDKRCqfa-42" value="&lt;p style=&quot;line-height: 70%;&quot;&gt;&lt;font size=&quot;1&quot;&gt;출입 아이디(PK)&lt;br&gt;작업자 아이디(FK)&lt;br&gt;구역 아이디(FK)&lt;br&gt;출입 시간&lt;br&gt;나간 시간(null 허용)&lt;/font&gt;&lt;/p&gt;" style="text;strokeColor=default;fillColor=none;html=1;align=center;verticalAlign=middle;whiteSpace=wrap;rounded=0;fontSize=16;strokeWidth=1;opacity=80;" parent="1" vertex="1">
          <mxGeometry x="412.65" y="718" width="107.87" height="80" as="geometry" />
        </mxCell>
        <mxCell id="6oBFWntBD9Y9UDKRCqfa-44" value="&lt;font style=&quot;font-size: 9px;&quot;&gt;&lt;b&gt;&lt;font color=&quot;#0000ff&quot;&gt;구역 안 인원수&lt;br&gt;전달&lt;/font&gt;&lt;br&gt;&lt;/b&gt;&lt;/font&gt;" style="edgeLabel;html=1;align=center;verticalAlign=middle;resizable=0;points=[];" parent="1" vertex="1" connectable="0">
          <mxGeometry x="468.13" y="835" as="geometry" />
        </mxCell>
        <mxCell id="6oBFWntBD9Y9UDKRCqfa-45" value="&lt;font size=&quot;1&quot; color=&quot;#0000ff&quot; style=&quot;&quot;&gt;&lt;b style=&quot;&quot;&gt;작업자 모습 모델에 전달&lt;/b&gt;&lt;/font&gt;" style="text;strokeColor=none;fillColor=none;html=1;align=center;verticalAlign=middle;whiteSpace=wrap;rounded=0;fontSize=16;" parent="1" vertex="1">
          <mxGeometry x="348.13" y="410" width="120" height="30" as="geometry" />
        </mxCell>
        <mxCell id="6oBFWntBD9Y9UDKRCqfa-46" style="edgeStyle=none;curved=1;rounded=0;orthogonalLoop=1;jettySize=auto;html=1;exitX=0.25;exitY=1;exitDx=0;exitDy=0;fontSize=12;startSize=8;endSize=8;" parent="1" source="6oBFWntBD9Y9UDKRCqfa-1" target="6oBFWntBD9Y9UDKRCqfa-1" edge="1">
          <mxGeometry relative="1" as="geometry" />
        </mxCell>
        <mxCell id="6oBFWntBD9Y9UDKRCqfa-47" value="&lt;font style=&quot;&quot;&gt;&lt;font style=&quot;font-size: 12px;&quot;&gt;통과&lt;/font&gt;&lt;br&gt;&lt;/font&gt;" style="edgeLabel;html=1;align=center;verticalAlign=middle;resizable=0;points=[];" parent="1" vertex="1" connectable="0">
          <mxGeometry x="540" y="1008.9981818181818" as="geometry" />
        </mxCell>
        <mxCell id="6oBFWntBD9Y9UDKRCqfa-48" value="&lt;font size=&quot;1&quot;&gt;작업 구역(place)&lt;br&gt;table 조회&lt;br&gt;&lt;/font&gt;" style="shape=datastore;whiteSpace=wrap;html=1;fillColor=#eeeeee;strokeColor=#36393d;" parent="1" vertex="1">
          <mxGeometry x="594.3100000000001" y="678" width="93.25" height="95" as="geometry" />
        </mxCell>
        <mxCell id="6oBFWntBD9Y9UDKRCqfa-49" value="" style="endArrow=classic;html=1;rounded=0;" parent="1" edge="1">
          <mxGeometry width="50" height="50" relative="1" as="geometry">
            <mxPoint x="640" y="851" as="sourcePoint" />
            <mxPoint x="580" y="914.55" as="targetPoint" />
            <Array as="points">
              <mxPoint x="640" y="915" />
            </Array>
          </mxGeometry>
        </mxCell>
        <mxCell id="6oBFWntBD9Y9UDKRCqfa-50" value="&lt;p style=&quot;line-height: 70%;&quot;&gt;&lt;font size=&quot;1&quot;&gt;구역 아이디(PK)&lt;br&gt;작업 위치&lt;br&gt;위험도&lt;br&gt;기준 인원&lt;br&gt;&lt;/font&gt;&lt;/p&gt;" style="text;strokeColor=default;fillColor=none;html=1;align=center;verticalAlign=middle;whiteSpace=wrap;rounded=0;fontSize=16;strokeWidth=1;opacity=80;" parent="1" vertex="1">
          <mxGeometry x="593.5" y="784" width="93" height="67" as="geometry" />
        </mxCell>
        <mxCell id="6oBFWntBD9Y9UDKRCqfa-52" value="&lt;font style=&quot;font-size: 9px;&quot;&gt;&lt;b&gt;&lt;font color=&quot;#0000ff&quot;&gt;구역 아이디, 위험도,&lt;br&gt;기준 인원 정보 전달&lt;/font&gt;&lt;br&gt;&lt;/b&gt;&lt;/font&gt;" style="edgeLabel;html=1;align=center;verticalAlign=middle;resizable=0;points=[];" parent="1" vertex="1" connectable="0">
          <mxGeometry x="640" y="884" as="geometry" />
        </mxCell>
        <mxCell id="6oBFWntBD9Y9UDKRCqfa-53" value="&lt;font color=&quot;#0000ff&quot;&gt;Yes&lt;/font&gt;" style="edgeLabel;html=1;align=center;verticalAlign=middle;resizable=0;points=[];" parent="1" vertex="1" connectable="0">
          <mxGeometry x="425.50305080754674" y="969.847224827853" as="geometry">
            <mxPoint x="99" y="-4" as="offset" />
          </mxGeometry>
        </mxCell>
        <mxCell id="6oBFWntBD9Y9UDKRCqfa-57" value="&lt;font size=&quot;1&quot;&gt;슬랙(slack)&lt;br&gt;table 입력&lt;br&gt;&lt;/font&gt;" style="shape=datastore;whiteSpace=wrap;html=1;fillColor=#eeeeee;strokeColor=#36393d;" parent="1" vertex="1">
          <mxGeometry x="815.98" y="941" width="93.25" height="95" as="geometry" />
        </mxCell>
        <mxCell id="6oBFWntBD9Y9UDKRCqfa-58" value="&lt;p style=&quot;line-height: 70%;&quot;&gt;&lt;font size=&quot;1&quot;&gt;슬랙경고 아이디(PK)&lt;br&gt;구역 아이디(FK)&lt;br&gt;메시지&lt;br&gt;경고 코드(FK)&lt;br&gt;경고 날짜/시간&lt;br&gt;&lt;/font&gt;&lt;/p&gt;" style="text;strokeColor=default;fillColor=none;html=1;align=center;verticalAlign=middle;whiteSpace=wrap;rounded=0;fontSize=16;strokeWidth=1;opacity=80;" parent="1" vertex="1">
          <mxGeometry x="808.1299999999999" y="1044" width="107.87" height="80" as="geometry" />
        </mxCell>
        <mxCell id="6oBFWntBD9Y9UDKRCqfa-61" value="" style="endArrow=classic;html=1;rounded=0;fontSize=12;startSize=8;endSize=8;curved=1;" parent="1" edge="1">
          <mxGeometry width="50" height="50" relative="1" as="geometry">
            <mxPoint x="488.34000000000003" y="1070" as="sourcePoint" />
            <mxPoint x="800" y="1070" as="targetPoint" />
          </mxGeometry>
        </mxCell>
        <mxCell id="6oBFWntBD9Y9UDKRCqfa-62" value="&lt;font style=&quot;font-size: 9px;&quot;&gt;&lt;b&gt;&lt;font color=&quot;#0000ff&quot;&gt;경고 메시지 저장&lt;/font&gt;&lt;br&gt;&lt;/b&gt;&lt;/font&gt;" style="edgeLabel;html=1;align=center;verticalAlign=middle;resizable=0;points=[];" parent="1" vertex="1" connectable="0">
          <mxGeometry x="621" y="1058" as="geometry" />
        </mxCell>
        <mxCell id="6oBFWntBD9Y9UDKRCqfa-63" value="&lt;font size=&quot;1&quot;&gt;코드 (codes)&lt;br&gt;table&amp;nbsp;&lt;br&gt;&lt;/font&gt;" style="shape=datastore;whiteSpace=wrap;html=1;fillColor=#eeeeee;strokeColor=#36393d;" parent="1" vertex="1">
          <mxGeometry x="815.9799999999999" y="784" width="93.25" height="95" as="geometry" />
        </mxCell>
        <mxCell id="6oBFWntBD9Y9UDKRCqfa-64" value="&lt;p style=&quot;line-height: 70%;&quot;&gt;&lt;font size=&quot;1&quot;&gt;코드(PK)&lt;br&gt;내용&lt;br&gt;&lt;/font&gt;&lt;/p&gt;" style="text;strokeColor=default;fillColor=none;html=1;align=center;verticalAlign=middle;whiteSpace=wrap;rounded=0;fontSize=16;strokeWidth=1;opacity=80;" parent="1" vertex="1">
          <mxGeometry x="828.45" y="884" width="68.31" height="37" as="geometry" />
        </mxCell>
        <mxCell id="6oBFWntBD9Y9UDKRCqfa-65" value="&lt;font style=&quot;font-size: 9px;&quot;&gt;&amp;nbsp;작업자 (workers)&lt;br&gt;table 입력&lt;/font&gt;" style="shape=datastore;whiteSpace=wrap;html=1;fillColor=#eeeeee;strokeColor=#36393d;" parent="1" vertex="1">
          <mxGeometry x="-110" y="48" width="91.24" height="90" as="geometry" />
        </mxCell>
        <mxCell id="6oBFWntBD9Y9UDKRCqfa-66" value="&lt;p style=&quot;line-height: 70%;&quot;&gt;&lt;font size=&quot;1&quot;&gt;작업자 아이디(PK)&lt;br&gt;작업자 이름&lt;br&gt;담당자 아이디(null 허용)&lt;br&gt;작업자 연락처&lt;br&gt;작업자 이메일(null 허용)&lt;/font&gt;&lt;/p&gt;" style="text;strokeColor=default;fillColor=none;html=1;align=center;verticalAlign=middle;whiteSpace=wrap;rounded=0;fontSize=16;strokeWidth=1;opacity=80;" parent="1" vertex="1">
          <mxGeometry x="-127.13" y="145" width="125.5" height="73" as="geometry" />
        </mxCell>
        <mxCell id="6oBFWntBD9Y9UDKRCqfa-67" value="&lt;span style=&quot;color: rgb(31, 31, 31); font-family: &amp;quot;docs-Google Sans&amp;quot;; font-style: normal; font-variant-ligatures: normal; font-variant-caps: normal; letter-spacing: normal; orphans: 2; text-align: left; text-indent: 0px; text-transform: none; widows: 2; word-spacing: 0px; -webkit-text-stroke-width: 0px; background-color: rgb(255, 255, 255); text-decoration-thickness: initial; text-decoration-style: initial; text-decoration-color: initial; float: none; font-size: 9px; display: inline !important;&quot;&gt;&lt;font style=&quot;font-size: 9px;&quot;&gt;&lt;b&gt;1. 날짜별 최초 통과 보호구 수 (막대+꺾은 선)&lt;br style=&quot;font-size: 9px;&quot;&gt;2. 경고 코드 비율 (파이 차트)&lt;/b&gt;&lt;/font&gt;&lt;/span&gt;" style="text;whiteSpace=wrap;html=1;fontSize=16;" parent="1" vertex="1">
          <mxGeometry x="756" y="695" width="210" height="40" as="geometry" />
        </mxCell>
      </root>
    </mxGraphModel>
  </diagram>
</mxfile>
